<?xml version="1.0" encoding="UTF-8" standalone="no"?>
<!-- Generator: Adobe Illustrator 16.0.0, SVG Export Plug-In . SVG Version: 6.00 Build 0)  -->

<svg
   xmlns:dc="http://purl.org/dc/elements/1.1/"
   xmlns:cc="http://creativecommons.org/ns#"
   xmlns:rdf="http://www.w3.org/1999/02/22-rdf-syntax-ns#"
   xmlns:svg="http://www.w3.org/2000/svg"
   xmlns="http://www.w3.org/2000/svg"
   xmlns:sodipodi="http://sodipodi.sourceforge.net/DTD/sodipodi-0.dtd"
   xmlns:inkscape="http://www.inkscape.org/namespaces/inkscape"
   version="1.1"
   id="Layer_1"
   x="0px"
   y="0px"
   width="40"
   height="32"
   viewBox="0 0 40 32"
   enable-background="new 0 0 40 32"
   xml:space="preserve"
   inkscape:version="0.91 r13725"
   sodipodi:docname="cam.svg"><metadata
     id="metadata13"><rdf:RDF><cc:Work
         rdf:about=""><dc:format>image/svg+xml</dc:format><dc:type
           rdf:resource="http://purl.org/dc/dcmitype/StillImage" /></cc:Work></rdf:RDF></metadata><defs
     id="defs11" /><sodipodi:namedview
     pagecolor="#ffffff"
     bordercolor="#666666"
     borderopacity="1"
     objecttolerance="10"
     gridtolerance="10"
     guidetolerance="10"
     inkscape:pageopacity="0"
     inkscape:pageshadow="2"
     inkscape:window-width="975"
     inkscape:window-height="718"
     id="namedview9"
     showgrid="false"
     inkscape:zoom="7.375"
     inkscape:cx="18.153753"
     inkscape:cy="16"
     inkscape:window-x="681"
     inkscape:window-y="79"
     inkscape:window-maximized="0"
     inkscape:current-layer="Layer_1" /><g
     id="g3"
     style="fill:#cccccc;fill-opacity:0.66666669"><path
       d="m 36.769,5.101 -6.49,0 -3.885,-4.08 c 0,0 -0.02,-0.02 -0.028,-0.02 l -0.021,-0.021 0,0 C 25.769,0.38 24.99,0 24.104,0 l -8.076,0 c -0.942,0 -1.779,0.42 -2.365,1.09 l 0,0.011 -3.798,4 -6.634,0 C 1.442,5.101 0,6.56 0,8.42 L 0,28.63 C 0,30.489 1.442,32 3.231,32 L 36.77,32 C 38.548,32 40,30.489 40,28.63 L 40,8.42 C 39.999,6.562 38.547,5.101 36.769,5.101 Z m -16.77,21.85 c -4.895,0 -8.885,-4.161 -8.885,-9.261 0,-5.109 3.99,-9.26 8.885,-9.26 4.904,0 8.885,4.15 8.885,9.26 0,5.1 -3.981,9.261 -8.885,9.261 z m 16.163,-16.5 c -0.74,0 -1.347,-0.63 -1.347,-1.41 0,-0.78 0.605,-1.41 1.347,-1.41 0.742,0 1.347,0.629 1.347,1.41 0,0.78 -0.606,1.41 -1.347,1.41 z"
       id="path5"
       inkscape:connector-curvature="0"
       style="fill:#cccccc;fill-opacity:0.66666669" /><path
       d="m 19.999,10.69 c -3.711,0 -6.711,3.131 -6.711,7 0,3.86 3,7 6.711,7 3.702,0 6.712,-3.131 6.712,-7 0,-3.869 -3.01,-7 -6.712,-7 z"
       id="path7"
       inkscape:connector-curvature="0"
       style="fill:#cccccc;fill-opacity:0.66666669" /></g></svg>